<svg width="40" height="40" viewBox="0 0 40 40" fill="none" xmlns="http://www.w3.org/2000/svg">
<path d="M28.523 7.24526C28.523 7.30931 28.4907 7.38938 28.4261 7.48546C28.3939 7.54951 27.9257 8.44627 27.0218 10.1757C26.021 12.0333 23.3898 16.8854 19.1283 24.732C23.9064 22.9705 28.184 20.3443 31.9613 16.8534C35.7385 13.3304 37.6271 10.2398 37.6271 7.58154C37.6271 6.14033 36.9169 4.95533 35.4964 4.02655C34.0759 3.09777 31.929 2.63337 29.0557 2.63337C26.1824 2.63337 23.0831 3.24189 19.7579 4.45891C16.4649 5.64391 13.5593 7.06911 11.0412 8.73451C8.523 10.3999 6.42454 12.1134 4.74576 13.8748C3.03471 15.6363 2.17918 17.0775 2.17918 18.1985C2.17918 19.4475 3.19613 20.0721 5.23002 20.0721C7.23164 20.0721 9.52381 19.4155 12.1065 18.1024C14.7215 16.7573 17.0621 14.9798 19.1283 12.7699C19.4835 12.3536 19.7094 12.1454 19.8063 12.1454C20.0323 12.1454 20.1453 12.2575 20.1453 12.4817C20.1453 12.5457 20.0323 12.7699 19.8063 13.1542C18.7409 14.7556 16.368 16.6452 12.6876 18.823C9.03955 20.9688 6.02098 22.0417 3.63196 22.0417C1.21065 22.0417 0 21.2891 0 19.7838C0 18.4387 0.968523 16.7092 2.90557 14.5954C4.81033 12.4496 7.19935 10.3679 10.0726 8.35019C12.9459 6.33249 16.2873 4.60303 20.0968 3.16182C23.9064 1.72061 27.4092 1 30.6053 1C33.8337 1 36.2066 1.51243 37.724 2.53729C39.2413 3.53013 40 4.82722 40 6.42857C40 9.21492 38.2082 12.3856 34.6247 15.9406C31.0734 19.4956 26.7797 22.346 21.7433 24.4918C25.004 24.5238 27.7159 25.933 29.8789 28.7193C32.042 31.4737 33.1396 34.6764 33.1719 38.3274C33.1719 38.7758 33.0912 39 32.9298 39C32.6715 39 32.4939 38.7118 32.3971 38.1353C32.3002 37.5908 32.1872 37.0464 32.0581 36.5019C31.929 35.9574 31.5254 34.9966 30.8475 33.6195C30.2018 32.2423 29.427 31.0253 28.523 29.9684C27.6513 28.9115 26.3761 27.9507 24.6973 27.086C23.0186 26.2212 21.1299 25.7889 19.0315 25.7889H18.4988C16.1743 29.9844 14.2211 33.4593 12.6392 36.2137C12.4455 36.63 12.0904 36.9503 11.5738 37.1745C11.0573 37.3987 10.6538 37.5107 10.3632 37.5107C10.1049 37.5107 9.97579 37.4307 9.97579 37.2705L15.9322 26.5095C14.6408 26.8298 13.3172 27.07 11.9613 27.2301C11.3801 27.2301 11.0896 27.134 11.0896 26.9418C11.0896 26.5896 11.2671 26.3974 11.6223 26.3654C13.1073 26.2693 14.7215 25.997 16.4649 25.5487L26.1985 7.96587C26.2954 7.70965 26.586 7.50147 27.0702 7.34134C27.5545 7.14918 27.958 7.0531 28.2809 7.0531L28.523 7.24526Z" fill="white"/>
</svg>
