<svg width="207" height="40" viewBox="0 0 207 40" fill="none" xmlns="http://www.w3.org/2000/svg">
<path d="M28.523 7.24526C28.523 7.30931 28.4907 7.38938 28.4261 7.48546C28.3939 7.54951 27.9257 8.44627 27.0218 10.1757C26.021 12.0333 23.3898 16.8854 19.1283 24.732C23.9064 22.9705 28.184 20.3443 31.9613 16.8534C35.7385 13.3304 37.6271 10.2398 37.6271 7.58154C37.6271 6.14033 36.9169 4.95533 35.4964 4.02655C34.0759 3.09777 31.929 2.63337 29.0557 2.63337C26.1824 2.63337 23.0831 3.24189 19.7579 4.45891C16.4649 5.64391 13.5593 7.06911 11.0412 8.73451C8.523 10.3999 6.42454 12.1134 4.74576 13.8748C3.03471 15.6363 2.17918 17.0775 2.17918 18.1985C2.17918 19.4475 3.19613 20.0721 5.23002 20.0721C7.23164 20.0721 9.52381 19.4155 12.1065 18.1024C14.7215 16.7573 17.0621 14.9798 19.1283 12.7699C19.4835 12.3536 19.7094 12.1454 19.8063 12.1454C20.0323 12.1454 20.1453 12.2575 20.1453 12.4817C20.1453 12.5457 20.0323 12.7699 19.8063 13.1542C18.7409 14.7556 16.368 16.6452 12.6876 18.823C9.03955 20.9688 6.02098 22.0417 3.63196 22.0417C1.21065 22.0417 0 21.2891 0 19.7838C0 18.4387 0.968523 16.7092 2.90557 14.5954C4.81033 12.4496 7.19935 10.3679 10.0726 8.35019C12.9459 6.33249 16.2873 4.60303 20.0968 3.16182C23.9064 1.72061 27.4092 1 30.6053 1C33.8337 1 36.2066 1.51243 37.724 2.53729C39.2413 3.53013 40 4.82722 40 6.42857C40 9.21492 38.2082 12.3856 34.6247 15.9406C31.0734 19.4956 26.7797 22.346 21.7433 24.4918C25.004 24.5238 27.7159 25.933 29.8789 28.7193C32.042 31.4737 33.1396 34.6764 33.1719 38.3274C33.1719 38.7758 33.0912 39 32.9298 39C32.6715 39 32.4939 38.7118 32.3971 38.1353C32.3002 37.5908 32.1872 37.0464 32.0581 36.5019C31.929 35.9574 31.5254 34.9966 30.8475 33.6195C30.2018 32.2423 29.427 31.0253 28.523 29.9684C27.6513 28.9115 26.3761 27.9507 24.6973 27.086C23.0186 26.2212 21.1299 25.7889 19.0315 25.7889H18.4988C16.1743 29.9844 14.2211 33.4593 12.6392 36.2137C12.4455 36.63 12.0904 36.9503 11.5738 37.1745C11.0573 37.3987 10.6538 37.5107 10.3632 37.5107C10.1049 37.5107 9.97579 37.4307 9.97579 37.2705L15.9322 26.5095C14.6408 26.8298 13.3172 27.07 11.9613 27.2301C11.3801 27.2301 11.0896 27.134 11.0896 26.9418C11.0896 26.5895 11.2671 26.3974 11.6223 26.3654C13.1073 26.2693 14.7215 25.997 16.4649 25.5487L26.1985 7.96587C26.2954 7.70965 26.586 7.50147 27.0702 7.34134C27.5545 7.14918 27.958 7.0531 28.2809 7.0531L28.523 7.24526Z" fill="white" fill-opacity="0.4"/>
<path d="M55.42 4.706V17H54.016V4.706H55.42ZM68.7176 4.706V17.414L60.0056 7.334L60.1496 17H59.2316V4.292L67.9436 14.39L67.7996 4.706H68.7176ZM79.4558 4.706V5.552L75.8918 5.48V17H74.5058V5.48L70.9418 5.552V4.706H79.4558ZM88.9325 16.118V17H81.6965V4.706H88.9325V5.588L83.0825 5.48V10.394L88.6985 10.358V11.204L83.0825 11.168V16.226L88.9325 16.118ZM99.3739 16.118V17H92.1379V4.706H93.5239V16.226L99.3739 16.118ZM103.408 4.706V17H102.004V4.706H103.408ZM118.632 10.7V10.916C118.632 12.644 118.074 14.12 116.958 15.326C115.842 16.532 114.402 17.144 112.656 17.144C110.91 17.144 109.434 16.532 108.192 15.308C106.968 14.066 106.356 12.59 106.356 10.862C106.356 9.116 106.968 7.64 108.192 6.416C109.434 5.174 110.91 4.562 112.656 4.562C114.654 4.562 116.256 5.318 117.498 6.812L116.562 7.586C115.482 6.146 114.078 5.318 112.656 5.318C111.306 5.318 110.172 5.858 109.236 6.938C108.318 8.018 107.85 9.332 107.85 10.88C107.85 12.41 108.318 13.706 109.236 14.786C110.172 15.848 111.306 16.388 112.656 16.388C113.934 16.388 115.014 15.902 115.86 14.948C116.706 13.994 117.138 12.824 117.138 11.474L112.692 11.51V10.664L118.632 10.7ZM128.624 16.118V17H121.388V4.706H128.624V5.588L122.774 5.48V10.394L128.39 10.358V11.204L122.774 11.168V16.226L128.624 16.118ZM141.315 4.706V17.414L132.603 7.334L132.747 17H131.829V4.292L140.541 14.39L140.397 4.706H141.315ZM152.053 4.706V5.552L148.489 5.48V17H147.103V5.48L143.539 5.552V4.706H152.053ZM163.78 4.706V17.414L155.068 7.334L155.212 17H154.294V4.292L163.006 14.39L162.862 4.706H163.78ZM174.608 16.118V17H167.372V4.706H174.608V5.588L168.758 5.48V10.394L174.374 10.358V11.204L168.758 11.168V16.226L174.608 16.118ZM58.12 31.726L62.998 37H61.144L55.816 31.168H57.67C58.516 31.168 59.218 30.934 59.794 30.448C60.37 29.962 60.658 29.242 60.658 28.324C60.658 27.406 60.37 26.704 59.794 26.218C59.218 25.732 58.516 25.48 57.67 25.48H55.186V37H53.8V24.706H57.796C59.038 24.706 60.082 25.048 60.892 25.75C61.72 26.452 62.134 27.298 62.134 28.324C62.134 29.278 61.738 30.088 60.964 30.754C60.19 31.402 59.254 31.726 58.12 31.726ZM74.6444 24.706V32.05C74.6444 33.58 74.1764 34.822 73.2404 35.758C72.3044 36.676 71.1524 37.144 69.8024 37.144C68.4524 37.144 67.3004 36.676 66.3644 35.758C65.4284 34.822 64.9604 33.58 64.9604 32.05V24.706H66.4004V31.996C66.4004 33.328 66.7064 34.39 67.3364 35.182C67.9664 35.974 68.7944 36.37 69.8024 36.37C70.8104 36.37 71.6204 35.974 72.2504 35.182C72.8804 34.39 73.2044 33.328 73.2044 31.996V24.706H74.6444ZM86.9109 33.616C86.9109 34.408 86.6769 35.128 86.1189 35.83C85.5609 36.532 84.4449 37 83.0049 37H78.1809V24.706H82.5009C83.8149 24.706 84.7869 25.03 85.4169 25.66C86.0649 26.29 86.3889 27.028 86.3889 27.874C86.3889 28.864 85.7589 29.944 84.7689 30.52C86.0829 31.024 86.9109 32.194 86.9109 33.616ZM85.4889 33.616C85.4889 32.482 84.9669 31.042 82.8609 31.042H79.5669V36.226H82.8609C85.0029 36.226 85.4889 34.552 85.4889 33.616ZM82.3209 25.48H79.5669V30.268H82.3209C84.0489 30.268 84.9669 29.278 84.9669 27.892C84.9669 26.506 84.0489 25.48 82.3209 25.48ZM91.4552 24.706V37H90.0512V24.706H91.4552ZM104.753 24.706V37.414L96.0408 27.334L96.1848 37H95.2668V24.292L103.979 34.39L103.835 24.706H104.753ZM118.245 26.416C119.469 27.64 120.081 29.116 120.081 30.862C120.081 32.608 119.469 34.084 118.227 35.308C117.003 36.532 115.527 37.144 113.781 37.144C112.035 37.144 110.559 36.532 109.317 35.308C108.093 34.084 107.481 32.608 107.481 30.862C107.481 29.116 108.093 27.64 109.317 26.416C110.541 25.174 112.035 24.562 113.781 24.562C115.527 24.562 117.021 25.174 118.245 26.416ZM117.183 34.786C118.119 33.724 118.587 32.41 118.587 30.862C118.587 29.314 118.119 28 117.183 26.938C116.265 25.858 115.131 25.318 113.781 25.318C112.431 25.318 111.297 25.858 110.361 26.938C109.443 28 108.975 29.314 108.975 30.862C108.975 32.41 109.443 33.724 110.361 34.786C111.297 35.848 112.431 36.388 113.781 36.388C115.131 36.388 116.265 35.848 117.183 34.786ZM125.62 37.414L121.426 24.706H122.974L125.98 34.264L129.544 24.292L133.234 34.228L136.186 24.706H137.212L133.018 37.414L129.328 27.532L125.62 37.414ZM146.659 36.118V37H139.423V24.706H146.659V25.588L140.809 25.48V30.394L146.425 30.358V31.204L140.809 31.168V36.226L146.659 36.118ZM165.237 30.862C165.237 32.608 164.643 34.066 163.437 35.236C162.249 36.406 160.773 37 159.027 37H155.085V24.706H159.027C160.773 24.706 162.249 25.3 163.437 26.47C164.643 27.64 165.237 29.116 165.237 30.862ZM163.743 30.862C163.743 29.26 163.275 27.964 162.321 26.974C161.367 25.984 160.197 25.48 158.811 25.48H156.471V36.226H158.811C160.197 36.226 161.367 35.74 162.321 34.75C163.275 33.76 163.743 32.464 163.743 30.862ZM177.87 26.416C179.094 27.64 179.706 29.116 179.706 30.862C179.706 32.608 179.094 34.084 177.852 35.308C176.628 36.532 175.152 37.144 173.406 37.144C171.66 37.144 170.184 36.532 168.942 35.308C167.718 34.084 167.106 32.608 167.106 30.862C167.106 29.116 167.718 27.64 168.942 26.416C170.166 25.174 171.66 24.562 173.406 24.562C175.152 24.562 176.646 25.174 177.87 26.416ZM176.808 34.786C177.744 33.724 178.212 32.41 178.212 30.862C178.212 29.314 177.744 28 176.808 26.938C175.89 25.858 174.756 25.318 173.406 25.318C172.056 25.318 170.922 25.858 169.986 26.938C169.068 28 168.6 29.314 168.6 30.862C168.6 32.41 169.068 33.724 169.986 34.786C170.922 35.848 172.056 36.388 173.406 36.388C174.756 36.388 175.89 35.848 176.808 34.786ZM192.643 24.292L196.837 37H195.289L192.283 27.442L188.719 37.414L185.029 27.478L182.077 37H181.051L185.245 24.292L188.953 34.174L192.643 24.292ZM205.726 24.706H206.968L202.36 31.528V37H200.884V31.528L196.276 24.706H198.04L201.982 30.664L205.726 24.706Z" fill="white" fill-opacity="0.4"/>
</svg>
