<svg width="207" height="41" viewBox="0 0 207 41" fill="none" xmlns="http://www.w3.org/2000/svg">
<path d="M28.523 8.04653C28.523 8.11058 28.4907 8.19065 28.4261 8.28673C28.3939 8.35078 27.9257 9.24754 27.0218 10.977C26.021 12.8346 23.3898 17.6866 19.1283 25.5333C23.9064 23.7718 28.184 21.1456 31.9613 17.6546C35.7385 14.1317 37.6271 11.041 37.6271 8.38281C37.6271 6.9416 36.9169 5.7566 35.4964 4.82782C34.0759 3.89903 31.929 3.43464 29.0557 3.43464C26.1824 3.43464 23.0831 4.04316 19.7579 5.26018C16.4649 6.44518 13.5593 7.87038 11.0412 9.53578C8.523 11.2012 6.42454 12.9146 4.74576 14.6761C3.03471 16.4376 2.17918 17.8788 2.17918 18.9998C2.17918 20.2488 3.19613 20.8733 5.23002 20.8733C7.23164 20.8733 9.52381 20.2168 12.1065 18.9037C14.7215 17.5585 17.0621 15.781 19.1283 13.5712C19.4835 13.1548 19.7094 12.9467 19.8063 12.9467C20.0323 12.9467 20.1453 13.0587 20.1453 13.2829C20.1453 13.347 20.0323 13.5712 19.8063 13.9555C18.7409 15.5569 16.368 17.4464 12.6876 19.6243C9.03955 21.7701 6.02098 22.843 3.63196 22.843C1.21065 22.843 0 22.0904 0 20.5851C0 19.24 0.968523 17.5105 2.90557 15.3967C4.81033 13.2509 7.19935 11.1692 10.0726 9.15146C12.9459 7.13376 16.2873 5.4043 20.0968 3.96309C23.9064 2.52188 27.4092 1.80127 30.6053 1.80127C33.8337 1.80127 36.2066 2.3137 37.724 3.33856C39.2413 4.3314 40 5.62849 40 7.22984C40 10.0162 38.2082 13.1869 34.6247 16.7419C31.0734 20.2968 26.7797 23.1472 21.7433 25.2931C25.004 25.3251 27.7159 26.7343 29.8789 29.5206C32.042 32.2749 33.1396 35.4776 33.1719 39.1287C33.1719 39.5771 33.0912 39.8013 32.9298 39.8013C32.6715 39.8013 32.4939 39.513 32.3971 38.9365C32.3002 38.3921 32.1872 37.8476 32.0581 37.3032C31.929 36.7587 31.5254 35.7979 30.8475 34.4207C30.2018 33.0436 29.427 31.8266 28.523 30.7697C27.6513 29.7128 26.3761 28.752 24.6973 27.8872C23.0186 27.0225 21.1299 26.5901 19.0315 26.5901H18.4988C16.1743 30.7857 14.2211 34.2606 12.6392 37.0149C12.4455 37.4313 12.0904 37.7515 11.5738 37.9757C11.0573 38.1999 10.6538 38.312 10.3632 38.312C10.1049 38.312 9.97579 38.2319 9.97579 38.0718L15.9322 27.3108C14.6408 27.631 13.3172 27.8712 11.9613 28.0314C11.3801 28.0314 11.0896 27.9353 11.0896 27.7431C11.0896 27.3908 11.2671 27.1987 11.6223 27.1666C13.1073 27.0705 14.7215 26.7983 16.4649 26.3499L26.1985 8.76713C26.2954 8.51092 26.586 8.30274 27.0702 8.14261C27.5545 7.95045 27.958 7.85437 28.2809 7.85437L28.523 8.04653Z" fill="#787988"/>
<path d="M55.42 5.50727V17.8013H54.016V5.50727H55.42ZM68.7176 5.50727V18.2153L60.0056 8.13527L60.1496 17.8013H59.2316V5.09327L67.9436 15.1913L67.7996 5.50727H68.7176ZM79.4558 5.50727V6.35327L75.8918 6.28127V17.8013H74.5058V6.28127L70.9418 6.35327V5.50727H79.4558ZM88.9325 16.9193V17.8013H81.6965V5.50727H88.9325V6.38927L83.0825 6.28127V11.1953L88.6985 11.1593V12.0053L83.0825 11.9693V17.0273L88.9325 16.9193ZM99.3739 16.9193V17.8013H92.1379V5.50727H93.5239V17.0273L99.3739 16.9193ZM103.408 5.50727V17.8013H102.004V5.50727H103.408ZM118.632 11.5013V11.7173C118.632 13.4453 118.074 14.9213 116.958 16.1273C115.842 17.3333 114.402 17.9453 112.656 17.9453C110.91 17.9453 109.434 17.3333 108.192 16.1093C106.968 14.8673 106.356 13.3913 106.356 11.6633C106.356 9.91727 106.968 8.44127 108.192 7.21727C109.434 5.97527 110.91 5.36327 112.656 5.36327C114.654 5.36327 116.256 6.11927 117.498 7.61327L116.562 8.38727C115.482 6.94727 114.078 6.11927 112.656 6.11927C111.306 6.11927 110.172 6.65927 109.236 7.73927C108.318 8.81927 107.85 10.1333 107.85 11.6813C107.85 13.2113 108.318 14.5073 109.236 15.5873C110.172 16.6493 111.306 17.1893 112.656 17.1893C113.934 17.1893 115.014 16.7033 115.86 15.7493C116.706 14.7953 117.138 13.6253 117.138 12.2753L112.692 12.3113V11.4653L118.632 11.5013ZM128.624 16.9193V17.8013H121.388V5.50727H128.624V6.38927L122.774 6.28127V11.1953L128.39 11.1593V12.0053L122.774 11.9693V17.0273L128.624 16.9193ZM141.315 5.50727V18.2153L132.603 8.13527L132.747 17.8013H131.829V5.09327L140.541 15.1913L140.397 5.50727H141.315ZM152.053 5.50727V6.35327L148.489 6.28127V17.8013H147.103V6.28127L143.539 6.35327V5.50727H152.053ZM163.78 5.50727V18.2153L155.068 8.13527L155.212 17.8013H154.294V5.09327L163.006 15.1913L162.862 5.50727H163.78ZM174.608 16.9193V17.8013H167.372V5.50727H174.608V6.38927L168.758 6.28127V11.1953L174.374 11.1593V12.0053L168.758 11.9693V17.0273L174.608 16.9193ZM63.952 31.6633C63.952 33.4093 63.358 34.8673 62.152 36.0373C60.964 37.2073 59.488 37.8013 57.742 37.8013H53.8V25.5073H57.742C59.488 25.5073 60.964 26.1013 62.152 27.2713C63.358 28.4413 63.952 29.9173 63.952 31.6633ZM62.458 31.6633C62.458 30.0613 61.99 28.7653 61.036 27.7753C60.082 26.7853 58.912 26.2813 57.526 26.2813H55.186V37.0273H57.526C58.912 37.0273 60.082 36.5413 61.036 35.5513C61.99 34.5613 62.458 33.2653 62.458 31.6633ZM76.5848 27.2173C77.8088 28.4413 78.4208 29.9173 78.4208 31.6633C78.4208 33.4093 77.8088 34.8853 76.5668 36.1093C75.3428 37.3333 73.8668 37.9453 72.1208 37.9453C70.3748 37.9453 68.8988 37.3333 67.6568 36.1093C66.4328 34.8853 65.8208 33.4093 65.8208 31.6633C65.8208 29.9173 66.4328 28.4413 67.6568 27.2173C68.8808 25.9753 70.3748 25.3633 72.1208 25.3633C73.8668 25.3633 75.3608 25.9753 76.5848 27.2173ZM75.5228 35.5873C76.4588 34.5253 76.9268 33.2113 76.9268 31.6633C76.9268 30.1153 76.4588 28.8013 75.5228 27.7393C74.6048 26.6593 73.4708 26.1193 72.1208 26.1193C70.7708 26.1193 69.6368 26.6593 68.7008 27.7393C67.7828 28.8013 67.3148 30.1153 67.3148 31.6633C67.3148 33.2113 67.7828 34.5253 68.7008 35.5873C69.6368 36.6493 70.7708 37.1893 72.1208 37.1893C73.4708 37.1893 74.6048 36.6493 75.5228 35.5873ZM91.3576 25.0933L95.5516 37.8013H94.0036L90.9976 28.2433L87.4336 38.2153L83.7436 28.2793L80.7916 37.8013H79.7656L83.9596 25.0933L87.6676 34.9753L91.3576 25.0933ZM104.441 25.5073H105.683L101.075 32.3293V37.8013H99.599V32.3293L94.991 25.5073H96.755L100.697 31.4653L104.441 25.5073ZM116.813 32.5273L121.691 37.8013H119.837L114.509 31.9693H116.363C117.209 31.9693 117.911 31.7353 118.487 31.2493C119.063 30.7633 119.351 30.0433 119.351 29.1253C119.351 28.2073 119.063 27.5053 118.487 27.0193C117.911 26.5333 117.209 26.2813 116.363 26.2813H113.879V37.8013H112.493V25.5073H116.489C117.731 25.5073 118.775 25.8493 119.585 26.5513C120.413 27.2533 120.827 28.0993 120.827 29.1253C120.827 30.0793 120.431 30.8893 119.657 31.5553C118.883 32.2033 117.947 32.5273 116.813 32.5273ZM133.338 25.5073V32.8513C133.338 34.3813 132.87 35.6233 131.934 36.5593C130.998 37.4773 129.846 37.9453 128.496 37.9453C127.146 37.9453 125.994 37.4773 125.058 36.5593C124.122 35.6233 123.654 34.3813 123.654 32.8513V25.5073H125.094V32.7973C125.094 34.1293 125.4 35.1913 126.03 35.9833C126.66 36.7753 127.488 37.1713 128.496 37.1713C129.504 37.1713 130.314 36.7753 130.944 35.9833C131.574 35.1913 131.898 34.1293 131.898 32.7973V25.5073H133.338ZM145.604 34.4173C145.604 35.2093 145.37 35.9293 144.812 36.6313C144.254 37.3333 143.138 37.8013 141.698 37.8013H136.874V25.5073H141.194C142.508 25.5073 143.48 25.8313 144.11 26.4613C144.758 27.0913 145.082 27.8293 145.082 28.6753C145.082 29.6653 144.452 30.7453 143.462 31.3213C144.776 31.8253 145.604 32.9953 145.604 34.4173ZM144.182 34.4173C144.182 33.2833 143.66 31.8433 141.554 31.8433H138.26V37.0273H141.554C143.696 37.0273 144.182 35.3533 144.182 34.4173ZM141.014 26.2813H138.26V31.0693H141.014C142.742 31.0693 143.66 30.0793 143.66 28.6933C143.66 27.3073 142.742 26.2813 141.014 26.2813ZM150.149 25.5073V37.8013H148.745V25.5073H150.149ZM163.446 25.5073V38.2153L154.734 28.1353L154.878 37.8013H153.96V25.0933L162.672 35.1913L162.528 25.5073H163.446ZM176.938 27.2173C178.162 28.4413 178.774 29.9173 178.774 31.6633C178.774 33.4093 178.162 34.8853 176.92 36.1093C175.696 37.3333 174.22 37.9453 172.474 37.9453C170.728 37.9453 169.252 37.3333 168.01 36.1093C166.786 34.8853 166.174 33.4093 166.174 31.6633C166.174 29.9173 166.786 28.4413 168.01 27.2173C169.234 25.9753 170.728 25.3633 172.474 25.3633C174.22 25.3633 175.714 25.9753 176.938 27.2173ZM175.876 35.5873C176.812 34.5253 177.28 33.2113 177.28 31.6633C177.28 30.1153 176.812 28.8013 175.876 27.7393C174.958 26.6593 173.824 26.1193 172.474 26.1193C171.124 26.1193 169.99 26.6593 169.054 27.7393C168.136 28.8013 167.668 30.1153 167.668 31.6633C167.668 33.2113 168.136 34.5253 169.054 35.5873C169.99 36.6493 171.124 37.1893 172.474 37.1893C173.824 37.1893 174.958 36.6493 175.876 35.5873ZM184.313 38.2153L180.119 25.5073H181.667L184.673 35.0653L188.237 25.0933L191.927 35.0293L194.879 25.5073H195.905L191.711 38.2153L188.021 28.3333L184.313 38.2153ZM205.352 36.9193V37.8013H198.116V25.5073H205.352V26.3893L199.502 26.2813V31.1953L205.118 31.1593V32.0053L199.502 31.9693V37.0273L205.352 36.9193Z" fill="#787988"/>
</svg>
