<svg width="886" height="288" viewBox="0 0 886 288" fill="none" xmlns="http://www.w3.org/2000/svg">
<path d="M377.147 0.308105C377.174 0.312395 377.2 0.31821 377.226 0.32666L379.325 1.02686L379.419 1.06982C379.449 1.08723 379.477 1.10708 379.503 1.13037L382.658 3.98975L383.842 4.62646L385.67 5.01221L385.75 5.03564C385.776 5.04575 385.8 5.05849 385.824 5.07275L416.824 23.6724C416.878 23.7047 416.926 23.7475 416.964 23.7974L422.563 31.0972L422.614 31.1772L423.515 32.978L423.528 33.0093L424.528 35.4087C424.554 35.4696 424.567 35.5351 424.567 35.6011V37.7017C424.567 37.8908 424.46 38.0643 424.291 38.1489L422.69 38.9487C422.48 39.054 422.223 38.998 422.076 38.814L421.677 38.314C421.64 38.268 421.611 38.2155 421.593 38.1597L421.205 36.9976L420.68 36.0356L419.167 34.9009C419.091 34.844 419.033 34.7668 418.999 34.6782L417.926 31.8491L416.475 30.0112C416.46 29.9927 416.446 29.9731 416.435 29.9526L412.216 22.6919L411.519 22.3823L408.375 21.7925C408.329 21.7839 408.285 21.7693 408.243 21.7485L407.443 21.3481C407.355 21.304 407.281 21.2346 407.232 21.1489L406.525 19.9126L404.104 19.0737C404.059 19.0585 404.018 19.0371 403.979 19.0103L398.611 15.2329L393.347 12.6499C393.276 12.6152 393.214 12.5645 393.167 12.5015L392.304 11.3511L389.517 9.14111L388.985 8.94189L388.189 9.3042L387.721 9.92822L386.452 14.3228L386.267 15.2505V17.3188L386.578 17.6929L388.674 18.646C388.742 18.6771 388.803 18.723 388.852 18.7808L389.352 19.3813L389.399 19.4507L390.5 21.3511L390.523 21.397L391.823 24.2964C391.858 24.3734 391.872 24.4583 391.865 24.5425L391.766 25.7427C391.763 25.7773 391.756 25.8119 391.746 25.8452L391.467 26.7759V27.5063L392.436 28.563C392.543 28.6806 392.589 28.8431 392.558 28.9995L392.004 31.7622L392.762 32.6587L393.985 32.4429L395.367 30.6011C395.507 30.415 395.757 30.3496 395.97 30.4438C396.182 30.5381 396.302 30.767 396.258 30.9956L395.782 33.4663L396.421 35.3833L397.486 37.0298L397.519 37.0874C397.528 37.1074 397.536 37.1279 397.543 37.1489L399.834 44.3188L400.521 45.7896C400.557 45.8684 400.573 45.9558 400.565 46.0425L400.267 49.6304V55.6694L400.854 61.4575L402.023 63.7974L403.235 64.23L403.304 64.2612C403.326 64.2731 403.347 64.2862 403.367 64.3013L406.107 66.356L407.374 66.8081L408.509 66.9028L408.616 66.9243L410.216 67.4243L410.282 67.4497C410.304 67.46 410.325 67.4716 410.345 67.4849L411.544 68.2856L411.602 68.3296C411.655 68.3779 411.698 68.4375 411.727 68.5044L412.306 69.8569L413.683 71.8765L428.768 76.7085L431.954 76.9888L434.619 75.4673L434.694 75.4321C434.875 75.3656 435.081 75.4079 435.221 75.5474L435.968 76.2954L436.956 76.8345L439.296 77.4897L473.119 72.4175L480.551 68.8501L480.658 68.813L484.202 68.0249L486.967 66.6899L492.404 60.9575L492.479 60.8921C492.507 60.873 492.536 60.8567 492.566 60.8433L494.167 60.1431L494.233 60.1196C494.391 60.0759 494.562 60.112 494.689 60.2192L496.516 61.7573L500.859 63.2046L507.896 63.6021H507.895L526.594 64.6021L561.794 66.5024L587.994 67.9019L614.193 69.3022L646.593 71.0024H646.594L685.993 73.1021H685.995L711.191 74.5015H711.192L736.393 75.8022L757.593 76.9019H757.594L774.601 77.7974L780.621 75.855L782.173 74.5776L784.426 70.3657L784.52 70.1772C784.569 70.078 784.651 69.9986 784.751 69.9507L787.051 68.8501C787.142 68.8065 787.245 68.7914 787.345 68.8071L789.245 69.1069L789.321 69.1255C789.346 69.1335 789.37 69.1439 789.394 69.1558L794.813 71.9146L795.547 71.9956L797.573 71.6099C797.64 71.5971 797.709 71.5981 797.775 71.6128L798.676 71.813L798.743 71.8335C798.81 71.8585 798.87 71.8973 798.921 71.9478L799.921 72.9478L799.982 73.0229C800 73.0499 800.016 73.0788 800.028 73.1089L800.528 74.3091L800.541 74.3433L800.924 75.4907L801.441 76.353L802.253 76.9214L805.231 77.3052L805.328 77.3276C805.423 77.3598 805.507 77.4203 805.567 77.5015L806.167 78.3013C806.252 78.4151 806.285 78.5602 806.257 78.6997L805.957 80.1997C805.953 80.2199 805.948 80.2398 805.941 80.2593L805.367 81.9819V83.3354L806.818 85.3013H808.469L810.578 84.439L810.658 84.4136L812.459 84.0132L812.54 84.0024C812.622 83.998 812.705 84.0139 812.78 84.0493L814.479 84.8491L814.536 84.8804C814.554 84.892 814.572 84.9046 814.589 84.9185L820.158 89.5933L823.586 91.6489L830.846 94.4341C830.902 94.4557 830.954 94.4878 830.999 94.5278L832.785 96.1157L834.484 97.5151C834.524 97.5481 834.56 97.5877 834.588 97.6313L835.487 99.0308C835.496 99.0441 835.504 99.0577 835.512 99.0718L837.097 102.144L837.83 103.246L838.68 103.84L840.494 104.318L840.554 104.337C840.573 104.345 840.591 104.354 840.609 104.364L841.51 104.864C841.578 104.902 841.636 104.956 841.68 105.02L843.18 107.219C843.201 107.251 843.22 107.285 843.233 107.321L844.434 110.42L844.447 110.464L845.447 113.964L845.456 113.998L846.156 117.297L846.159 117.312L847.459 124.512C847.463 124.537 847.466 124.562 847.467 124.587L847.566 128.087C847.569 128.181 847.546 128.273 847.499 128.353L846.099 130.753C846.069 130.805 846.029 130.85 845.983 130.888L844.919 131.759L844.478 132.289L844.158 132.849L844.071 134.247L844.426 135.489L845.146 136.569L845.999 137.328L846.021 137.348L846.62 137.948L846.665 137.999C846.706 138.052 846.735 138.114 846.752 138.18L846.952 138.98C846.962 139.02 846.967 139.06 846.967 139.101V140.001C846.967 140.071 846.952 140.141 846.924 140.205L846.568 141.003L846.665 145.337L847.548 148.964L848.741 152.543L848.751 152.577L849.751 156.477C849.757 156.502 849.762 156.527 849.765 156.552L850.559 164.602L851.52 167.677L853.679 170.818C853.734 170.898 853.764 170.993 853.767 171.09L853.966 180.548L856.052 191.074L863.734 214.82L868.018 223.684L868.035 223.726L869.835 228.526L869.852 228.577L873.547 242.959L875.111 247.162L876.671 249.307C876.693 249.337 876.712 249.37 876.727 249.404L877.627 251.504L877.644 251.549L878.335 253.724L879.391 256.025L880.906 257.731L882.467 258.901C882.529 258.947 882.58 259.008 882.614 259.078L883.515 260.877C883.553 260.955 883.571 261.042 883.566 261.128L883.366 264.829C883.363 264.88 883.352 264.931 883.334 264.979L882.534 267.08C882.525 267.105 882.513 267.129 882.5 267.152L881.411 269.03L880.562 270.917L880.469 273.732L881.218 276.167L883.863 279.596L883.914 279.677L885.015 281.877L885.049 281.966C885.057 281.997 885.063 282.028 885.065 282.06L885.165 283.259C885.168 283.291 885.168 283.325 885.164 283.357L884.967 285.13V286.053L885.3 287.801H0.700195L2.56738 286.401L2.63379 286.359L8.09082 283.481L13.4307 279.229L16.1465 276.416L17.2812 273.862L17.4727 272.625L17.4922 272.544L20.2598 264.141L20.0732 262.089L19.4844 259.933C19.4782 259.91 19.4736 259.887 19.4707 259.864L19.1709 257.463C19.1663 257.426 19.1662 257.388 19.1699 257.351L19.3691 255.351C19.3734 255.309 19.3829 255.268 19.3975 255.228L20.0977 253.329L20.123 253.271C20.1328 253.252 20.1442 253.234 20.1562 253.216L21.0557 251.917C21.0961 251.858 21.149 251.81 21.21 251.773L22.1025 251.237L22.6279 250.362L24.8457 246.11L23.9287 245.27C23.8781 245.224 23.8384 245.167 23.8105 245.104L23.4512 244.297L22.2275 243.168C22.1986 243.142 22.1732 243.111 22.1514 243.079L21.5508 242.178C21.5147 242.124 21.4894 242.063 21.4766 242L21.1768 240.5C21.1703 240.467 21.167 240.434 21.167 240.401V237.639L20.9727 236.377H20.9717L20.3779 233.606L18.4775 224.706C18.4742 224.69 18.4715 224.674 18.4697 224.658L17.582 216.865L15.7373 213.756C15.7175 213.723 15.701 213.688 15.6895 213.651L14.709 210.514L12.5469 207.173C12.5121 207.12 12.4888 207.059 12.4766 206.997L11.876 203.896C11.8709 203.87 11.868 203.843 11.8672 203.816L11.7676 200.416C11.7673 200.405 11.7672 200.394 11.7676 200.383L11.9658 194.816L11.8721 193.397L10.002 187.587L8.61426 184.613C8.57152 184.521 8.5576 184.419 8.57422 184.319L8.96484 181.966L8.86719 177.712V177.601C8.86728 177.349 9.05467 177.136 9.30469 177.105L10.0361 177.013L11.5947 176.373L12.584 175.465L12.6445 174.749L11.2842 173.813C11.1475 173.719 11.0663 173.564 11.0674 173.398C11.0686 173.232 11.152 173.077 11.29 172.985L12.0957 172.447L12.1836 172.301L12.1064 172.173L11.3242 171.739C11.1018 171.615 11.0076 171.344 11.1055 171.109L11.6055 169.909L11.6641 169.805C11.7344 169.71 11.8378 169.641 11.9561 169.614C12.1135 169.578 12.2787 169.621 12.3994 169.728L13.2539 170.488L14.5039 171.161C14.5237 171.171 14.5433 171.184 14.5615 171.197L15.6611 171.997L15.7197 172.047C15.7746 172.102 15.817 172.169 15.8418 172.243L16.7939 175.099L17.9229 175.967L20.3682 177.043C20.433 177.072 20.4917 177.114 20.5391 177.167L22.3125 179.137L23.1797 179.831L27.0527 180.508C27.0821 180.513 27.1117 180.521 27.1396 180.532L32.0391 182.332C32.0862 182.349 32.131 182.373 32.1709 182.404L33.8711 183.704L33.9277 183.755C33.9454 183.774 33.9618 183.794 33.9766 183.815L35.377 185.815L35.4092 185.869L38.3896 191.533L38.9844 192.365L39.0674 190.282L39.0859 190.164L39.4863 188.764L39.5225 188.672C39.5375 188.643 39.5555 188.615 39.5762 188.589L40.377 187.589L40.4189 187.542C40.434 187.528 40.45 187.514 40.4668 187.501L41.4229 186.783L41.374 186.484C41.3695 186.457 41.3672 186.428 41.3672 186.401V185.801C41.3672 185.783 41.3681 185.764 41.3701 185.746L41.4238 185.26L40.8691 185.094L38.624 184.899C38.5484 184.892 38.4752 184.869 38.4102 184.83L37.4102 184.23C37.318 184.175 37.246 184.091 37.2051 183.992L34.4043 177.192C34.37 177.109 34.359 177.017 34.3721 176.928L34.8721 173.529L34.8945 173.437L37.1953 166.836L37.2188 166.78C37.2828 166.65 37.4009 166.554 37.543 166.517C37.705 166.476 37.8776 166.517 38.002 166.629L38.7852 167.334L39.376 167.137L40.3438 166.654L40.4346 166.619C40.4661 166.61 40.4985 166.604 40.5312 166.602L41.3896 166.541L40.873 163.177C40.8667 163.136 40.8652 163.095 40.8691 163.053L41.1689 159.953C41.1709 159.933 41.1744 159.913 41.1787 159.893L41.7715 157.225L41.7764 157.176L41.499 157.653C41.4775 157.69 41.4511 157.724 41.4209 157.754L39.4844 159.69L39.9062 160.461C40.0062 160.645 39.9815 160.871 39.8447 161.029C39.7078 161.187 39.4866 161.243 39.291 161.169L38.4912 160.87C38.4504 160.854 38.4115 160.833 38.376 160.808L37.6768 160.308C37.6543 160.292 37.6328 160.274 37.6133 160.254L37.1133 159.754C37.0867 159.728 37.0629 159.698 37.043 159.667L36.543 158.867C36.4196 158.669 36.4487 158.412 36.6133 158.248L37.0859 157.774L37.8623 156.708L37.9023 156.66C37.9164 156.645 37.9315 156.63 37.9473 156.617L38.252 156.362L37.2773 154.251L35.3086 153.087L25.3174 152.099C25.1911 152.087 25.0738 152.026 24.9902 151.93L23.5908 150.331C23.4671 150.189 23.4332 149.99 23.5029 149.816L24.5654 147.158C24.5362 147.145 24.5084 147.13 24.4824 147.112L24.0957 147.758C24.0305 147.867 23.9265 147.947 23.8047 147.982L23.1045 148.182C22.9842 148.216 22.855 148.205 22.7432 148.149L21.9873 147.77L21.1025 147.529L20.667 147.716L20.0742 148.393L19.4961 149.359C19.4901 149.369 19.4833 149.379 19.4766 149.388L19.2217 149.75L21.1582 150.11L21.2256 150.127C21.2478 150.135 21.27 150.143 21.291 150.154L22.6904 150.854C22.7551 150.886 22.8122 150.932 22.8574 150.989L23.6572 151.989C23.7394 152.092 23.7784 152.223 23.7646 152.354L23.5645 154.253C23.5557 154.337 23.5262 154.417 23.4785 154.486L22.5781 155.786C22.5237 155.864 22.4476 155.926 22.3594 155.962L21.1592 156.462C20.9958 156.531 20.8086 156.507 20.667 156.401L20.1445 156.009L17.9365 157.422C17.9017 157.445 17.8644 157.463 17.8252 157.476L16.625 157.875C16.5862 157.888 16.5456 157.897 16.5049 157.9L15.667 157.963V158.268L16.5596 158.64C16.7456 158.718 16.8671 158.899 16.8672 159.101V159.401C16.8672 159.645 16.6903 159.854 16.4492 159.894L15.249 160.094C15.2037 160.102 15.157 160.103 15.1113 160.098L14.2119 159.999C14.1533 159.992 14.0957 159.975 14.043 159.949L12.708 159.281L11.6777 159.093C11.6106 159.081 11.5461 159.055 11.4893 159.017L9.98926 158.017C9.93499 157.981 9.88796 157.935 9.85156 157.88L5.63574 151.605L3.66895 150.801H3.56738C3.34516 150.801 3.14914 150.654 3.08691 150.441L2.41406 148.134L0.876953 146.213C0.769122 146.079 0.737571 145.898 0.794922 145.735C0.852252 145.572 0.989913 145.451 1.1582 145.414L1.93652 145.24L2.44629 144.802L4.00098 140.82L4.04785 140.728C4.10355 140.643 4.18506 140.576 4.28125 140.538C4.40954 140.486 4.55348 140.49 4.67871 140.548L6.17871 141.249L6.2793 141.311L7.22363 142.066L9.7832 143.109L18.6348 143.797L22.0938 143.125L25.499 141.278L32.0732 136.497L32.1631 136.445L56.1631 125.745L56.2383 125.718L76.8994 120.228L102.071 109.542L102.138 109.518L118.537 105.119L136.4 100.327L153.96 92.3462L154.031 92.3198C154.056 92.313 154.08 92.3083 154.105 92.3052L168.653 90.5112L178.606 87.1274C178.826 87.0529 179.069 87.1402 179.191 87.3374C179.314 87.5348 179.284 87.7903 179.12 87.9546L178.021 89.0552C177.979 89.0962 177.932 89.1302 177.879 89.1548L174.142 90.8979L175.19 91.6714L182.567 90.3804V90.3013H182.467C182.191 90.3012 181.967 90.0773 181.967 89.8013V88.7017C181.967 88.4256 182.191 88.2018 182.467 88.2017H186.166L185.89 88.0171C185.739 87.9165 185.654 87.7418 185.669 87.561L185.826 85.5757L184.329 85.5044L179.514 86.979C179.264 87.0555 178.997 86.9272 178.901 86.6841C178.806 86.4409 178.914 86.1651 179.149 86.0513L182.22 84.5649L185.933 82.1216L191.485 75.5776C191.628 75.4098 191.86 75.3581 192.057 75.439L195.835 68.9497L195.872 68.894L206.372 55.394C206.503 55.2255 206.728 55.1587 206.93 55.228C206.961 55.2388 206.99 55.2539 207.018 55.27L208.715 51.687C208.741 51.6329 208.776 51.5842 208.819 51.5425L212.02 48.4419L212.101 48.3784L218.301 44.478L218.394 44.4321C218.426 44.4202 218.46 44.4118 218.494 44.4067L237.338 41.6147L244.685 38.7358L244.776 38.7095L248.539 38.0151L251.883 36.8696L260.496 27.3657L260.569 27.2993C260.595 27.2799 260.624 27.2635 260.653 27.2495L287.953 14.3491C287.992 14.331 288.032 14.318 288.074 14.3101L322.438 7.81689L337.805 2.52881L337.922 2.50342L362.122 0.303223L362.167 0.30127H377.067L377.147 0.308105ZM194.157 74.9136C194.142 74.9327 194.125 74.9506 194.107 74.9673L192.707 76.2681C192.564 76.4008 192.362 76.433 192.188 76.3657L191.11 78.4321C191.091 78.4701 191.066 78.5059 191.037 78.5376L189.155 80.606L190.224 80.4185L191.464 79.8862L192.689 78.4741L192.766 78.4028C192.793 78.3819 192.823 78.363 192.854 78.3481L195.948 76.8979L196.789 75.8267L196.039 74.1011H194.807L194.157 74.9136ZM208.949 54.8247L207.721 56.0552C207.599 56.1771 207.427 56.2219 207.267 56.189V56.6011C207.267 56.6517 207.259 56.7022 207.244 56.7505L206.876 57.9243L207.177 58.0581L208.355 57.5864L209.312 56.3696L209.813 54.6187L209.718 54.5044L208.949 54.8247Z" fill="#F5F2EE"/>
<path d="M179.3 76.101C179.95 74.751 180.35 73.201 180.35 71.601C180.35 65.901 175.7 61.251 170 61.251C164.3 61.251 159.65 65.901 159.65 71.601C159.65 73.201 160.05 74.751 160.7 76.101C160.7 76.101 160.9 76.551 160.95 76.601L170 93.351L178.95 76.851C179.05 76.651 179.3 76.101 179.3 76.101ZM170 66.451C172.85 66.451 175.15 68.751 175.15 71.601C175.15 74.451 172.85 76.801 170 76.801C167.15 76.801 164.85 74.501 164.85 71.651C164.85 68.801 167.15 66.451 170 66.451Z" fill="#C5A562"/>
<circle cx="401.5" cy="62.3013" r="3.5" fill="#C5A562"/>
<path d="M425.168 62.5413V62.8133C425.168 64.3653 424.672 65.6933 423.664 66.7973C422.656 67.8853 421.36 68.4293 419.776 68.4293C418.192 68.4293 416.848 67.8693 415.744 66.7653C414.64 65.6613 414.096 64.3173 414.096 62.7653C414.096 61.1973 414.656 59.8533 415.76 58.7493C416.864 57.6453 418.208 57.0853 419.776 57.0853C421.568 57.0853 423.04 57.7733 424.192 59.1653L423.232 59.9653C422.208 58.6053 421.056 57.9173 419.776 57.9173C418.656 57.9173 417.712 58.3973 416.944 59.3413C416.176 60.2853 415.792 61.4213 415.792 62.7813C415.792 64.1093 416.176 65.2453 416.944 66.1893C417.712 67.1333 418.656 67.5973 419.776 67.5973C420.848 67.5973 421.728 67.1973 422.416 66.3813C423.104 65.5653 423.456 64.5733 423.472 63.3893L419.728 63.4213V62.5093L425.168 62.5413ZM434.385 57.2133V68.3013H432.962V67.2293C432.466 67.9173 431.522 68.4293 430.418 68.4293C429.346 68.4293 428.45 68.0293 427.714 67.2293C426.993 66.4133 426.626 65.4373 426.626 64.3013C426.626 63.1813 426.993 62.2213 427.73 61.4053C428.466 60.5893 429.362 60.1733 430.418 60.1733C431.522 60.1733 432.45 60.6853 432.946 61.3733V57.2133H434.385ZM432.962 64.3013C432.962 62.2533 432.002 60.9253 430.53 60.9253C429.858 60.9253 429.298 61.2613 428.834 61.9173C428.37 62.5733 428.146 63.3573 428.146 64.3013C428.146 65.2453 428.37 66.0613 428.834 66.7173C429.298 67.3733 429.858 67.6933 430.53 67.6933C431.25 67.6933 431.842 67.3733 432.29 66.7493C432.738 66.1253 432.962 65.3093 432.962 64.3013ZM443.4 68.3013H441.864C441.72 68.0613 441.64 67.7093 441.592 67.2293C440.856 68.0293 439.96 68.4293 438.904 68.4293C437.352 68.4293 436.296 67.5653 436.296 66.2373C436.296 64.8773 437.064 63.5813 441.496 62.8773C441.48 62.2213 441.304 61.7413 440.952 61.4213C440.6 61.0853 440.2 60.9253 439.768 60.9253C438.92 60.9253 438.184 61.4053 437.56 62.3813L436.6 61.4533C437.624 60.6053 438.696 60.1733 439.816 60.1733C441.32 60.1733 443.064 60.9093 442.968 63.4853L442.888 66.1253C442.872 66.8613 443.032 67.5813 443.4 68.3013ZM441.464 65.1493L441.496 63.6133C438.344 64.1893 437.799 65.1813 437.799 66.1253C437.799 67.0053 438.344 67.5173 439.32 67.5173C439.88 67.5173 440.376 67.3093 440.808 66.8933C441.24 66.4773 441.448 65.9013 441.464 65.1493ZM452.506 63.5333V68.3013H451.066V63.5653C451.066 61.8373 450.202 61.2133 449.066 61.2133C447.898 61.2133 447.018 62.0933 447.018 63.4853V68.3013H445.562V60.3013H447.002V61.3893C447.626 60.5733 448.458 60.1733 449.498 60.1733C450.906 60.1733 452.506 60.8293 452.506 63.5333ZM450.138 55.6773L451.29 56.3973L448.826 59.1653H448.01L450.138 55.6773ZM460.87 65.9653C460.87 66.6693 460.55 67.2613 459.926 67.7253C459.302 68.1893 458.534 68.4293 457.606 68.4293C456.742 68.4293 456.022 68.2053 455.43 67.7733C454.838 67.3413 454.486 66.8133 454.374 66.1893L455.494 65.9013C455.638 66.9253 456.566 67.6773 457.654 67.6773C458.182 67.6773 458.646 67.5333 459.014 67.2453C459.398 66.9573 459.59 66.6213 459.59 66.2373C459.59 65.4853 458.966 65.1173 457.43 64.7973C455.51 64.3653 454.71 63.6453 454.71 62.4933C454.71 61.8373 454.998 61.2773 455.574 60.8453C456.166 60.3973 456.886 60.1733 457.734 60.1733C458.55 60.1733 459.222 60.3653 459.75 60.7493C460.294 61.1333 460.63 61.5973 460.758 62.1253L459.654 62.3813C459.398 61.5493 458.582 60.9253 457.702 60.9253C456.758 60.9253 455.99 61.5013 455.99 62.1413C455.99 62.7973 456.518 63.1013 458.006 63.4213C460.054 63.8693 460.87 64.6373 460.87 65.9653ZM464.533 64.3973V68.3013H463.093V57.2133H464.533V64.1253L468.517 60.3013H469.893L465.925 63.8373L470.661 68.3013H468.581L464.533 64.3973Z" fill="#231503"/>
<circle cx="38.5" cy="192.301" r="3.5" fill="#C5A562"/>
<path d="M58.9968 195.069C58.9968 196.045 58.6128 196.845 57.8608 197.485C57.1088 198.109 56.1648 198.429 55.0448 198.429C53.9728 198.429 53.0928 198.141 52.3728 197.565C51.6528 196.989 51.2368 196.285 51.0928 195.469L52.3408 195.133C52.3728 195.789 52.6608 196.349 53.2048 196.845C53.7648 197.341 54.3888 197.581 55.0768 197.581C55.7808 197.581 56.3728 197.373 56.8528 196.957C57.3328 196.541 57.5728 196.013 57.5728 195.373C57.5728 194.237 56.8048 193.661 54.8208 193.213C52.4688 192.653 51.5247 191.741 51.5247 190.205C51.5247 189.309 51.8768 188.557 52.5807 187.965C53.3008 187.373 54.1648 187.069 55.2048 187.069C56.1808 187.069 56.9808 187.325 57.6368 187.821C58.2928 188.317 58.7088 188.925 58.8688 189.613L57.6208 189.917C57.5408 189.389 57.2368 188.941 56.7408 188.541C56.2448 188.141 55.7168 187.933 55.1568 187.933C54.5328 187.933 54.0208 188.109 53.5888 188.477C53.1568 188.845 52.9488 189.293 52.9488 189.837C52.9488 190.797 53.6368 191.245 55.4928 191.693C58.0368 192.317 58.9968 193.293 58.9968 195.069ZM60.56 190.301H66.864L62.208 197.485L66.8 197.389V198.301H60.112L64.736 191.117L60.56 191.213V190.301ZM74.7506 196.477L75.2466 197.005C74.5586 197.757 73.4226 198.429 72.0946 198.429C70.9586 198.429 69.9986 198.045 69.2306 197.261C68.4626 196.477 68.0786 195.501 68.0786 194.349C68.0786 193.197 68.4626 192.221 69.2466 191.405C70.0306 190.589 70.9906 190.173 72.1266 190.173C73.1186 190.173 74.0946 190.509 75.0386 191.165L74.2706 192.077C73.5986 191.325 72.8946 190.941 72.1586 190.941C71.4066 190.941 70.7826 191.261 70.3186 191.917C69.8546 192.573 69.6146 193.373 69.6146 194.333C69.5986 195.373 69.8546 196.173 70.3826 196.749C70.9106 197.309 71.5186 197.597 72.2386 197.597C72.6386 197.597 73.0386 197.517 73.4226 197.357C73.8066 197.197 74.0626 197.069 74.2066 196.957C74.3506 196.845 74.5266 196.685 74.7506 196.477ZM76.3413 190.301H82.6453L77.9893 197.485L82.5813 197.389V198.301H75.8933L80.5173 191.117L76.3413 191.213V190.301ZM91.5239 194.237H85.3959C85.3959 195.309 85.6679 196.141 86.1959 196.717C86.7239 197.293 87.3639 197.581 88.0839 197.581C88.9639 197.581 89.7959 197.213 90.5799 196.461L91.0919 197.005C90.2119 197.949 89.1559 198.429 87.9239 198.429C86.7719 198.429 85.8119 198.029 85.0279 197.229C84.2439 196.413 83.8599 195.421 83.8599 194.221C83.8599 193.085 84.2439 192.141 85.0119 191.357C85.7959 190.573 86.7079 190.173 87.7799 190.173C88.8999 190.173 89.7959 190.557 90.4839 191.325C91.1719 192.077 91.5239 193.053 91.5239 194.237ZM85.4439 193.469H89.9879C89.8439 191.917 88.9799 190.909 87.8119 190.909C87.2839 190.909 86.7719 191.133 86.2759 191.597C85.7799 192.061 85.5079 192.685 85.4439 193.469ZM99.5788 196.477L100.075 197.005C99.3868 197.757 98.2508 198.429 96.9227 198.429C95.7868 198.429 94.8268 198.045 94.0588 197.261C93.2908 196.477 92.9068 195.501 92.9068 194.349C92.9068 193.197 93.2908 192.221 94.0748 191.405C94.8588 190.589 95.8188 190.173 96.9548 190.173C97.9468 190.173 98.9228 190.509 99.8668 191.165L99.0988 192.077C98.4268 191.325 97.7228 190.941 96.9868 190.941C96.2348 190.941 95.6108 191.261 95.1468 191.917C94.6828 192.573 94.4428 193.373 94.4428 194.333C94.4268 195.373 94.6828 196.173 95.2108 196.749C95.7388 197.309 96.3468 197.597 97.0668 197.597C97.4668 197.597 97.8668 197.517 98.2508 197.357C98.6348 197.197 98.8908 197.069 99.0348 196.957C99.1788 196.845 99.3548 196.685 99.5788 196.477ZM103.473 187.277C103.809 187.613 103.809 188.269 103.473 188.637C103.153 189.005 102.529 188.989 102.161 188.653C101.825 188.285 101.825 187.645 102.161 187.277C102.497 186.909 103.137 186.909 103.473 187.277ZM103.553 190.301V198.301H102.097V190.301H103.553ZM113.287 193.533V198.301H111.847V193.565C111.847 191.837 110.983 191.213 109.847 191.213C108.679 191.213 107.799 192.093 107.799 193.485V198.301H106.343V190.301H107.783V191.389C108.407 190.573 109.239 190.173 110.279 190.173C111.687 190.173 113.287 190.829 113.287 193.533Z" fill="black"/>
</svg>
