<svg width="885" height="288" viewBox="0 0 885 288" fill="none" xmlns="http://www.w3.org/2000/svg">
<path d="M376.447 0.00683594C376.474 0.0111259 376.5 0.01694 376.525 0.0253906L378.625 0.725586L378.719 0.768555C378.749 0.785957 378.777 0.805811 378.803 0.829102L381.958 3.68848L383.142 4.3252L384.97 4.71094L385.05 4.73438C385.076 4.74448 385.1 4.75722 385.124 4.77148L416.124 23.3711C416.178 23.4034 416.225 23.4462 416.264 23.4961L421.863 30.7959L421.914 30.876L422.814 32.6768L422.828 32.708L423.828 35.1074C423.853 35.1683 423.867 35.2339 423.867 35.2998V37.4004C423.867 37.5896 423.76 37.763 423.591 37.8477L421.99 38.6475C421.779 38.7527 421.523 38.6967 421.376 38.5127L420.977 38.0127C420.94 37.9667 420.911 37.9142 420.893 37.8584L420.505 36.6963L419.979 35.7344L418.467 34.5996C418.391 34.5428 418.332 34.4655 418.299 34.377L417.226 31.5479L415.774 29.71C415.76 29.6914 415.746 29.6718 415.734 29.6514L411.516 22.3906L410.818 22.0811L407.675 21.4912C407.629 21.4826 407.585 21.468 407.543 21.4473L406.743 21.0469C406.655 21.0027 406.581 20.9333 406.532 20.8477L405.825 19.6113L403.403 18.7725C403.359 18.7572 403.317 18.7358 403.279 18.709L397.911 14.9316L392.646 12.3486C392.576 12.3139 392.514 12.2632 392.467 12.2002L391.604 11.0498L388.816 8.83984L388.285 8.64062L387.489 9.00293L387.021 9.62695L385.752 14.0215L385.566 14.9492V17.0176L385.878 17.3916L387.974 18.3447C388.042 18.3759 388.103 18.4217 388.151 18.4795L388.651 19.0801L388.699 19.1494L389.8 21.0498L389.823 21.0957L391.123 23.9951C391.158 24.0722 391.172 24.1571 391.165 24.2412L391.065 25.4414C391.063 25.476 391.056 25.5107 391.046 25.5439L390.767 26.4746V27.2051L391.735 28.2617C391.843 28.3793 391.889 28.5418 391.857 28.6982L391.304 31.4609L392.062 32.3574L393.285 32.1416L394.667 30.2998C394.807 30.1137 395.057 30.0484 395.27 30.1426C395.482 30.2369 395.602 30.4658 395.558 30.6943L395.082 33.165L395.721 35.082L396.786 36.7285L396.818 36.7861C396.828 36.8061 396.836 36.8266 396.843 36.8477L399.134 44.0176L399.82 45.4883C399.857 45.5671 399.872 45.6545 399.865 45.7412L399.566 49.3291V55.3682L400.154 61.1562L401.323 63.4961L402.535 63.9287L402.604 63.96C402.626 63.9718 402.647 63.985 402.667 64L405.407 66.0547L406.674 66.5068L407.809 66.6016L407.916 66.623L409.516 67.123L409.582 67.1484C409.604 67.1587 409.625 67.1703 409.645 67.1836L410.844 67.9844L410.901 68.0283C410.955 68.0766 410.998 68.1363 411.026 68.2031L411.605 69.5557L412.982 71.5752L428.067 76.4072L431.254 76.6875L433.919 75.166L433.994 75.1309C434.175 75.0643 434.381 75.1066 434.521 75.2461L435.268 75.9941L436.256 76.5332L438.596 77.1885L472.419 72.1162L479.851 68.5488L479.958 68.5117L483.502 67.7236L486.267 66.3887L491.704 60.6562L491.779 60.5908C491.806 60.5717 491.836 60.5554 491.866 60.542L493.467 59.8418L493.533 59.8184C493.691 59.7746 493.862 59.8108 493.989 59.918L495.815 61.4561L500.159 62.9033L507.195 63.3008H507.194L525.894 64.3008L561.094 66.2012L587.294 67.6006L613.493 69.001L645.893 70.7012H645.894L685.293 72.8008H685.295L710.491 74.2002H710.492L735.692 75.501L756.893 76.6006H756.894L773.9 77.4961L779.921 75.5537L781.473 74.2764L783.726 70.0645L783.819 69.876C783.869 69.7768 783.951 69.6974 784.051 69.6494L786.351 68.5488C786.442 68.5052 786.545 68.4901 786.645 68.5059L788.545 68.8057L788.621 68.8242C788.646 68.8323 788.67 68.8426 788.693 68.8545L794.113 71.6133L794.847 71.6943L796.873 71.3086C796.94 71.2959 797.009 71.2968 797.075 71.3115L797.976 71.5117L798.043 71.5322C798.109 71.5572 798.17 71.596 798.221 71.6465L799.221 72.6465L799.282 72.7217C799.3 72.7487 799.316 72.7775 799.328 72.8076L799.828 74.0078L799.841 74.042L800.224 75.1895L800.741 76.0518L801.553 76.6201L804.531 77.0039L804.628 77.0264C804.722 77.0585 804.806 77.1191 804.867 77.2002L805.467 78C805.552 78.1138 805.585 78.259 805.557 78.3984L805.257 79.8984C805.253 79.9186 805.248 79.9385 805.241 79.958L804.667 81.6807V83.0342L806.118 85H807.769L809.878 84.1377L809.958 84.1123L811.759 83.7119L811.84 83.7012C811.922 83.6967 812.005 83.7126 812.08 83.748L813.779 84.5479L813.836 84.5791C813.854 84.5907 813.872 84.6033 813.889 84.6172L819.458 89.292L822.886 91.3477L830.146 94.1328C830.202 94.1544 830.254 94.1865 830.299 94.2266L832.085 95.8145L833.784 97.2139C833.824 97.2468 833.86 97.2865 833.888 97.3301L834.787 98.7295C834.796 98.7428 834.804 98.7565 834.812 98.7705L836.396 101.843L837.13 102.944L837.979 103.539L839.794 104.017L839.854 104.036C839.873 104.044 839.891 104.053 839.909 104.062L840.81 104.562C840.878 104.6 840.936 104.654 840.979 104.719L842.479 106.918C842.501 106.95 842.519 106.984 842.533 107.02L843.733 110.119L843.747 110.163L844.747 113.663L844.756 113.696L845.456 116.996L845.459 117.011L846.759 124.211C846.763 124.236 846.766 124.261 846.767 124.286L846.866 127.786C846.869 127.879 846.846 127.971 846.799 128.052L845.398 130.452C845.368 130.504 845.329 130.549 845.283 130.587L844.219 131.458L843.777 131.987L843.458 132.548L843.371 133.945L843.726 135.188L844.446 136.268L845.299 137.026L845.32 137.047L845.92 137.646L845.965 137.697C846.006 137.751 846.035 137.813 846.052 137.879L846.252 138.679C846.262 138.718 846.267 138.759 846.267 138.8V139.7C846.267 139.77 846.252 139.839 846.224 139.903L845.868 140.702L845.965 145.036L846.848 148.663L848.041 152.242L848.051 152.275L849.051 156.176C849.057 156.2 849.062 156.226 849.064 156.251L849.858 164.301L850.819 167.376L852.979 170.517C853.034 170.597 853.064 170.692 853.066 170.789L853.266 180.247L855.352 190.772L863.034 214.519L867.317 223.383L867.335 223.425L869.135 228.225L869.151 228.275L872.847 242.658L874.411 246.86L875.971 249.006C875.993 249.036 876.012 249.068 876.026 249.103L876.927 251.203L876.943 251.248L877.635 253.423L878.69 255.724L880.206 257.43L881.767 258.6C881.829 258.646 881.879 258.707 881.914 258.776L882.814 260.576C882.853 260.654 882.871 260.741 882.866 260.827L882.666 264.527C882.663 264.579 882.652 264.63 882.634 264.678L881.834 266.778C881.824 266.803 881.813 266.827 881.8 266.851L880.711 268.729L879.862 270.616L879.769 273.431L880.518 275.866L883.163 279.295L883.214 279.376L884.314 281.576L884.349 281.665C884.357 281.695 884.363 281.727 884.365 281.759L884.465 282.958C884.468 282.99 884.467 283.024 884.464 283.056L884.267 284.829V285.752L884.6 287.5H0L1.86719 286.1L1.93359 286.058L7.39062 283.18L12.7305 278.928L15.4463 276.114L16.5811 273.561L16.7725 272.324L16.792 272.243L19.5596 263.84L19.373 261.788L18.7842 259.632C18.778 259.609 18.7734 259.586 18.7705 259.562L18.4707 257.162C18.4661 257.125 18.466 257.087 18.4697 257.05L18.6689 255.05C18.6732 255.008 18.6827 254.966 18.6973 254.927L19.3975 253.027L19.4229 252.97C19.4326 252.951 19.444 252.932 19.4561 252.915L20.3555 251.615C20.3959 251.557 20.4488 251.508 20.5098 251.472L21.4023 250.936L21.9277 250.061L24.1455 245.809L23.2285 244.969C23.178 244.922 23.1382 244.865 23.1104 244.803L22.751 243.996L21.5273 242.867C21.4984 242.84 21.473 242.81 21.4512 242.777L20.8506 241.877C20.8145 241.823 20.7892 241.762 20.7764 241.698L20.4766 240.198C20.4701 240.166 20.4668 240.133 20.4668 240.1V237.338L20.2725 236.076H20.2715L19.6777 233.305L17.7773 224.404C17.774 224.389 17.7714 224.372 17.7695 224.356L16.8818 216.563L15.0371 213.455C15.0173 213.422 15.0008 213.387 14.9893 213.35L14.0088 210.213L11.8467 206.872C11.812 206.818 11.7886 206.758 11.7764 206.695L11.1758 203.595C11.1707 203.568 11.1678 203.542 11.167 203.515L11.0674 200.114C11.0671 200.104 11.067 200.093 11.0674 200.082L11.2656 194.515L11.1719 193.096L9.30176 187.286L7.91406 184.312C7.87133 184.22 7.85741 184.117 7.87402 184.018L8.26465 181.665L8.16699 177.411V177.3C8.16708 177.048 8.35447 176.835 8.60449 176.804L9.33594 176.712L10.8945 176.071L11.8838 175.164L11.9443 174.447L10.584 173.512C10.4473 173.418 10.3661 173.262 10.3672 173.097C10.3684 172.931 10.4518 172.776 10.5898 172.684L11.3955 172.146L11.4834 172L11.4062 171.872L10.624 171.438C10.4016 171.314 10.3074 171.043 10.4053 170.808L10.9053 169.607L10.9639 169.504C11.0342 169.408 11.1376 169.34 11.2559 169.312C11.4133 169.277 11.5785 169.319 11.6992 169.427L12.5537 170.187L13.8037 170.859C13.8235 170.87 13.8431 170.882 13.8613 170.896L14.9609 171.695L15.0195 171.746C15.0744 171.801 15.1168 171.867 15.1416 171.941L16.0938 174.798L17.2227 175.666L19.668 176.742C19.7328 176.771 19.7915 176.813 19.8389 176.865L21.6123 178.836L22.4795 179.529L26.3525 180.207C26.3819 180.212 26.4115 180.22 26.4395 180.23L31.3389 182.03C31.386 182.048 31.4308 182.072 31.4707 182.103L33.1709 183.402L33.2275 183.454C33.2452 183.473 33.2617 183.493 33.2764 183.514L34.6768 185.514L34.709 185.567L37.6895 191.231L38.2842 192.063L38.3672 189.98L38.3857 189.862L38.7861 188.463L38.8223 188.371C38.8374 188.342 38.8553 188.314 38.876 188.288L39.6768 187.288L39.7188 187.241C39.7338 187.227 39.7498 187.213 39.7666 187.2L40.7227 186.481L40.6738 186.183C40.6693 186.155 40.667 186.127 40.667 186.1V185.5C40.667 185.482 40.6679 185.463 40.6699 185.444L40.7236 184.959L40.1689 184.793L37.9238 184.598C37.8482 184.591 37.7751 184.567 37.71 184.528L36.71 183.929C36.6178 183.873 36.5458 183.79 36.5049 183.69L33.7041 176.891C33.6698 176.807 33.6588 176.716 33.6719 176.627L34.1719 173.228L34.1943 173.136L36.4951 166.535L36.5186 166.479C36.5826 166.349 36.7007 166.252 36.8428 166.216C37.0048 166.174 37.1774 166.216 37.3018 166.328L38.085 167.033L38.6758 166.836L39.6436 166.353L39.7344 166.317C39.7659 166.309 39.7983 166.303 39.8311 166.301L40.6895 166.239L40.1729 162.876C40.1665 162.835 40.165 162.793 40.1689 162.752L40.4688 159.651C40.4707 159.631 40.4742 159.611 40.4785 159.592L41.0713 156.924L41.0762 156.875L40.7988 157.352C40.7773 157.388 40.7509 157.423 40.7207 157.453L38.7842 159.389L39.2061 160.16C39.306 160.343 39.2813 160.57 39.1445 160.728C39.0076 160.885 38.7864 160.941 38.5908 160.868L37.791 160.568C37.7502 160.553 37.7113 160.532 37.6758 160.507L36.9766 160.007C36.9542 159.991 36.9326 159.973 36.9131 159.953L36.4131 159.453C36.3865 159.426 36.3627 159.397 36.3428 159.365L35.8428 158.565C35.7194 158.368 35.7485 158.111 35.9131 157.946L36.3857 157.473L37.1621 156.406L37.2021 156.358C37.2162 156.343 37.2313 156.329 37.2471 156.315L37.5518 156.061L36.5771 153.95L34.6084 152.786L24.6172 151.798C24.4909 151.785 24.3736 151.724 24.29 151.629L22.8906 150.029C22.7669 149.888 22.733 149.689 22.8027 149.515L23.8652 146.856C23.8361 146.844 23.8082 146.829 23.7822 146.811L23.3955 147.457C23.3303 147.566 23.2263 147.646 23.1045 147.681L22.4043 147.881C22.284 147.915 22.1549 147.904 22.043 147.848L21.2871 147.469L20.4023 147.228L19.9668 147.415L19.374 148.092L18.7959 149.058C18.7899 149.068 18.7831 149.077 18.7764 149.087L18.5215 149.449L20.458 149.809L20.5254 149.826C20.5476 149.834 20.5698 149.842 20.5908 149.853L21.9902 150.553C22.0549 150.585 22.112 150.631 22.1572 150.688L22.957 151.688C23.0392 151.79 23.0782 151.922 23.0645 152.053L22.8643 153.952C22.8555 154.035 22.826 154.116 22.7783 154.185L21.8779 155.484C21.8235 155.563 21.7475 155.624 21.6592 155.661L20.459 156.161C20.2956 156.229 20.1084 156.206 19.9668 156.1L19.4443 155.708L17.2363 157.121C17.2015 157.143 17.1642 157.162 17.125 157.175L15.9248 157.574C15.886 157.587 15.8454 157.595 15.8047 157.599L14.9668 157.662V157.967L15.8594 158.339C16.0454 158.417 16.1669 158.598 16.167 158.8V159.1C16.167 159.344 15.9901 159.553 15.749 159.593L14.5488 159.793C14.5035 159.801 14.4568 159.802 14.4111 159.797L13.5117 159.697C13.4531 159.691 13.3955 159.674 13.3428 159.647L12.0078 158.979L10.9775 158.792C10.9104 158.78 10.8459 158.754 10.7891 158.716L9.28906 157.716C9.23479 157.68 9.18777 157.633 9.15137 157.579L4.93555 151.304L2.96875 150.5H2.86719C2.64497 150.5 2.44894 150.353 2.38672 150.14L1.71387 147.833L0.176758 145.912C0.0689266 145.777 0.0373758 145.596 0.0947266 145.434C0.152056 145.271 0.289718 145.15 0.458008 145.112L1.23633 144.938L1.74609 144.501L3.30078 140.519L3.34766 140.427C3.40336 140.341 3.48487 140.275 3.58105 140.236C3.70934 140.185 3.85328 140.189 3.97852 140.247L5.47852 140.947L5.5791 141.01L6.52344 141.765L9.08301 142.808L17.9346 143.496L21.3936 142.824L24.7988 140.977L31.373 136.195L31.4629 136.144L55.4629 125.443L55.5381 125.417L76.1992 119.927L101.371 109.24L101.438 109.217L117.837 104.817L135.7 100.025L153.26 92.0449L153.331 92.0186C153.355 92.0117 153.38 92.007 153.405 92.0039L167.953 90.21L177.906 86.8262C178.126 86.7516 178.369 86.8389 178.491 87.0361C178.614 87.2335 178.584 87.489 178.42 87.6533L177.32 88.7539C177.279 88.795 177.231 88.8289 177.179 88.8535L173.441 90.5967L174.49 91.3701L181.867 90.0791V90H181.767C181.491 89.9999 181.267 89.7761 181.267 89.5V88.4004C181.267 88.1243 181.491 87.9005 181.767 87.9004H185.466L185.189 87.7158C185.039 87.6152 184.954 87.4405 184.969 87.2598L185.126 85.2744L183.629 85.2031L178.813 86.6777C178.564 86.7542 178.297 86.626 178.201 86.3828C178.106 86.1396 178.214 85.8638 178.449 85.75L181.52 84.2637L185.232 81.8203L190.785 75.2764C190.928 75.1085 191.16 75.0568 191.356 75.1377L195.135 68.6484L195.172 68.5928L205.672 55.0928C205.803 54.9242 206.027 54.8574 206.229 54.9268C206.261 54.9375 206.29 54.9526 206.317 54.9688L208.015 51.3857C208.04 51.3316 208.076 51.2829 208.119 51.2412L211.319 48.1406L211.4 48.0771L217.601 44.1768L217.693 44.1309C217.726 44.1189 217.76 44.1105 217.794 44.1055L236.638 41.3135L243.984 38.4346L244.076 38.4082L247.839 37.7139L251.183 36.5684L259.796 27.0645L259.869 26.998C259.895 26.9787 259.924 26.9622 259.953 26.9482L287.253 14.0479C287.291 14.0297 287.332 14.0167 287.374 14.0088L321.737 7.51562L337.104 2.22754L337.222 2.20215L361.422 0.00195312L361.467 0H376.367L376.447 0.00683594ZM193.457 74.6123C193.442 74.6314 193.425 74.6494 193.407 74.666L192.007 75.9668C191.864 76.0995 191.661 76.1318 191.487 76.0645L190.41 78.1309C190.39 78.1688 190.366 78.2046 190.337 78.2363L188.455 80.3047L189.523 80.1172L190.764 79.585L191.989 78.1729L192.065 78.1016C192.093 78.0806 192.123 78.0617 192.154 78.0469L195.248 76.5967L196.089 75.5254L195.339 73.7998H194.106L193.457 74.6123ZM208.249 54.5234L207.021 55.7539C206.898 55.8759 206.727 55.9207 206.566 55.8877V56.2998C206.566 56.3504 206.559 56.4009 206.544 56.4492L206.176 57.623L206.477 57.7568L207.655 57.2852L208.612 56.0684L209.113 54.3174L209.018 54.2031L208.249 54.5234Z" fill="#C5A562" fill-opacity="0.2"/>
<path d="M178.6 75.7997C179.25 74.4497 179.65 72.8997 179.65 71.2997C179.65 65.5997 175 60.9497 169.3 60.9497C163.6 60.9497 158.95 65.5997 158.95 71.2997C158.95 72.8997 159.35 74.4497 160 75.7997C160 75.7997 160.2 76.2497 160.25 76.2997L169.3 93.0497L178.25 76.5497C178.35 76.3497 178.6 75.7997 178.6 75.7997ZM169.3 66.1497C172.15 66.1497 174.45 68.4497 174.45 71.2997C174.45 74.1497 172.15 76.4997 169.3 76.4997C166.45 76.4997 164.15 74.1997 164.15 71.3497C164.15 68.4997 166.45 66.1497 169.3 66.1497Z" fill="#C5A562"/>
<circle cx="400.8" cy="62" r="3.5" fill="#C5A562"/>
<path d="M424.468 62.24V62.512C424.468 64.064 423.972 65.392 422.964 66.496C421.956 67.584 420.66 68.128 419.076 68.128C417.492 68.128 416.148 67.568 415.044 66.464C413.94 65.36 413.396 64.016 413.396 62.464C413.396 60.896 413.956 59.552 415.06 58.448C416.164 57.344 417.508 56.784 419.076 56.784C420.868 56.784 422.34 57.472 423.492 58.864L422.532 59.664C421.508 58.304 420.356 57.616 419.076 57.616C417.956 57.616 417.012 58.096 416.244 59.04C415.476 59.984 415.092 61.12 415.092 62.48C415.092 63.808 415.476 64.944 416.244 65.888C417.012 66.832 417.956 67.296 419.076 67.296C420.148 67.296 421.028 66.896 421.716 66.08C422.404 65.264 422.756 64.272 422.772 63.088L419.028 63.12V62.208L424.468 62.24ZM433.685 56.912V68H432.261V66.928C431.765 67.616 430.821 68.128 429.717 68.128C428.645 68.128 427.749 67.728 427.013 66.928C426.293 66.112 425.925 65.136 425.925 64C425.925 62.88 426.293 61.92 427.029 61.104C427.765 60.288 428.661 59.872 429.717 59.872C430.821 59.872 431.749 60.384 432.245 61.072V56.912H433.685ZM432.261 64C432.261 61.952 431.301 60.624 429.829 60.624C429.157 60.624 428.597 60.96 428.133 61.616C427.669 62.272 427.445 63.056 427.445 64C427.445 64.944 427.669 65.76 428.133 66.416C428.597 67.072 429.157 67.392 429.829 67.392C430.549 67.392 431.141 67.072 431.589 66.448C432.037 65.824 432.261 65.008 432.261 64ZM442.699 68H441.163C441.019 67.76 440.939 67.408 440.891 66.928C440.155 67.728 439.259 68.128 438.203 68.128C436.651 68.128 435.595 67.264 435.595 65.936C435.595 64.576 436.363 63.28 440.795 62.576C440.779 61.92 440.603 61.44 440.251 61.12C439.899 60.784 439.499 60.624 439.067 60.624C438.219 60.624 437.483 61.104 436.859 62.08L435.899 61.152C436.923 60.304 437.995 59.872 439.115 59.872C440.619 59.872 442.363 60.608 442.267 63.184L442.187 65.824C442.171 66.56 442.331 67.28 442.699 68ZM440.763 64.848L440.795 63.312C437.643 63.888 437.099 64.88 437.099 65.824C437.099 66.704 437.643 67.216 438.619 67.216C439.179 67.216 439.675 67.008 440.107 66.592C440.539 66.176 440.747 65.6 440.763 64.848ZM451.805 63.232V68H450.365V63.264C450.365 61.536 449.501 60.912 448.365 60.912C447.197 60.912 446.317 61.792 446.317 63.184V68H444.861V60H446.301V61.088C446.925 60.272 447.757 59.872 448.797 59.872C450.205 59.872 451.805 60.528 451.805 63.232ZM449.437 55.376L450.589 56.096L448.125 58.864H447.309L449.437 55.376ZM460.17 65.664C460.17 66.368 459.85 66.96 459.226 67.424C458.602 67.888 457.834 68.128 456.906 68.128C456.042 68.128 455.322 67.904 454.73 67.472C454.138 67.04 453.786 66.512 453.674 65.888L454.794 65.6C454.938 66.624 455.866 67.376 456.954 67.376C457.482 67.376 457.946 67.232 458.314 66.944C458.698 66.656 458.89 66.32 458.89 65.936C458.89 65.184 458.266 64.816 456.73 64.496C454.81 64.064 454.01 63.344 454.01 62.192C454.01 61.536 454.298 60.976 454.874 60.544C455.466 60.096 456.186 59.872 457.034 59.872C457.85 59.872 458.522 60.064 459.05 60.448C459.594 60.832 459.93 61.296 460.058 61.824L458.954 62.08C458.698 61.248 457.882 60.624 457.002 60.624C456.058 60.624 455.29 61.2 455.29 61.84C455.29 62.496 455.818 62.8 457.306 63.12C459.354 63.568 460.17 64.336 460.17 65.664ZM463.833 64.096V68H462.393V56.912H463.833V63.824L467.817 60H469.193L465.225 63.536L469.961 68H467.881L463.833 64.096Z" fill="#231503"/>
<circle cx="37.7998" cy="192" r="3.5" fill="#C5A562"/>
<path d="M58.2966 194.768C58.2966 195.744 57.9126 196.544 57.1606 197.184C56.4086 197.808 55.4646 198.128 54.3446 198.128C53.2726 198.128 52.3926 197.84 51.6726 197.264C50.9526 196.688 50.5366 195.984 50.3926 195.168L51.6406 194.832C51.6726 195.488 51.9606 196.048 52.5046 196.544C53.0646 197.04 53.6886 197.28 54.3766 197.28C55.0806 197.28 55.6726 197.072 56.1526 196.656C56.6326 196.24 56.8726 195.712 56.8726 195.072C56.8726 193.936 56.1046 193.36 54.1206 192.912C51.7686 192.352 50.8246 191.44 50.8246 189.904C50.8246 189.008 51.1766 188.256 51.8806 187.664C52.6006 187.072 53.4646 186.768 54.5046 186.768C55.4806 186.768 56.2806 187.024 56.9366 187.52C57.5926 188.016 58.0086 188.624 58.1686 189.312L56.9206 189.616C56.8406 189.088 56.5366 188.64 56.0406 188.24C55.5446 187.84 55.0166 187.632 54.4566 187.632C53.8326 187.632 53.3206 187.808 52.8886 188.176C52.4566 188.544 52.2486 188.992 52.2486 189.536C52.2486 190.496 52.9366 190.944 54.7926 191.392C57.3366 192.016 58.2966 192.992 58.2966 194.768ZM59.8598 190H66.1638L61.5078 197.184L66.0998 197.088V198H59.4118L64.0358 190.816L59.8598 190.912V190ZM74.0504 196.176L74.5464 196.704C73.8584 197.456 72.7224 198.128 71.3944 198.128C70.2584 198.128 69.2984 197.744 68.5304 196.96C67.7624 196.176 67.3784 195.2 67.3784 194.048C67.3784 192.896 67.7624 191.92 68.5464 191.104C69.3304 190.288 70.2904 189.872 71.4264 189.872C72.4184 189.872 73.3944 190.208 74.3384 190.864L73.5704 191.776C72.8984 191.024 72.1944 190.64 71.4584 190.64C70.7064 190.64 70.0824 190.96 69.6184 191.616C69.1544 192.272 68.9144 193.072 68.9144 194.032C68.8984 195.072 69.1544 195.872 69.6824 196.448C70.2104 197.008 70.8184 197.296 71.5384 197.296C71.9384 197.296 72.3384 197.216 72.7224 197.056C73.1064 196.896 73.3624 196.768 73.5064 196.656C73.6504 196.544 73.8264 196.384 74.0504 196.176ZM75.6411 190H81.9451L77.2891 197.184L81.8811 197.088V198H75.1931L79.8171 190.816L75.6411 190.912V190ZM90.8237 193.936H84.6957C84.6957 195.008 84.9677 195.84 85.4957 196.416C86.0237 196.992 86.6637 197.28 87.3837 197.28C88.2637 197.28 89.0957 196.912 89.8797 196.16L90.3917 196.704C89.5117 197.648 88.4557 198.128 87.2237 198.128C86.0717 198.128 85.1117 197.728 84.3277 196.928C83.5437 196.112 83.1597 195.12 83.1597 193.92C83.1597 192.784 83.5437 191.84 84.3117 191.056C85.0957 190.272 86.0077 189.872 87.0797 189.872C88.1997 189.872 89.0957 190.256 89.7837 191.024C90.4717 191.776 90.8237 192.752 90.8237 193.936ZM84.7437 193.168H89.2877C89.1437 191.616 88.2797 190.608 87.1117 190.608C86.5837 190.608 86.0717 190.832 85.5757 191.296C85.0797 191.76 84.8077 192.384 84.7437 193.168ZM98.8786 196.176L99.3746 196.704C98.6866 197.456 97.5506 198.128 96.2226 198.128C95.0866 198.128 94.1266 197.744 93.3586 196.96C92.5906 196.176 92.2066 195.2 92.2066 194.048C92.2066 192.896 92.5906 191.92 93.3746 191.104C94.1586 190.288 95.1186 189.872 96.2546 189.872C97.2466 189.872 98.2226 190.208 99.1666 190.864L98.3986 191.776C97.7266 191.024 97.0226 190.64 96.2866 190.64C95.5346 190.64 94.9106 190.96 94.4466 191.616C93.9826 192.272 93.7426 193.072 93.7426 194.032C93.7266 195.072 93.9826 195.872 94.5106 196.448C95.0386 197.008 95.6466 197.296 96.3666 197.296C96.7666 197.296 97.1666 197.216 97.5506 197.056C97.9346 196.896 98.1906 196.768 98.3346 196.656C98.4786 196.544 98.6546 196.384 98.8786 196.176ZM102.773 186.976C103.109 187.312 103.109 187.968 102.773 188.336C102.453 188.704 101.829 188.688 101.461 188.352C101.125 187.984 101.125 187.344 101.461 186.976C101.797 186.608 102.437 186.608 102.773 186.976ZM102.853 190V198H101.397V190H102.853ZM112.587 193.232V198H111.147V193.264C111.147 191.536 110.283 190.912 109.147 190.912C107.979 190.912 107.099 191.792 107.099 193.184V198H105.643V190H107.083V191.088C107.707 190.272 108.539 189.872 109.579 189.872C110.987 189.872 112.587 190.528 112.587 193.232Z" fill="black"/>
</svg>
